<?xml version="1.0" standalone="no"?>
<!DOCTYPE svg PUBLIC "-//W3C//DTD SVG 20010904//EN"
 "http://www.w3.org/TR/2001/REC-SVG-20010904/DTD/svg10.dtd">
<svg version="1.0" xmlns="http://www.w3.org/2000/svg"
 width="720.000000pt" height="720.000000pt" viewBox="0 0 720.000000 720.000000"
 preserveAspectRatio="xMidYMid meet">
<metadata>
Created by potrace 1.14, written by Peter Selinger 2001-2017
</metadata>
<g transform="translate(0.000000,720.000000) scale(0.100000,-0.100000)"
fill="#000000" stroke="none">
<path d="M1548 5901 c-31 -10 -72 -28 -92 -40 -55 -34 -123 -116 -148 -179
l-23 -57 0 -665 0 -665 24 -60 c33 -82 124 -173 206 -206 l60 -24 665 0 665 0
60 24 c42 17 78 42 121 85 43 43 68 79 85 121 l24 60 0 665 0 665 -24 60 c-33
82 -124 173 -206 206 l-60 24 -650 2 c-605 2 -654 1 -707 -16z"/>
<path d="M4268 5901 c-31 -10 -72 -28 -92 -40 -55 -34 -123 -116 -148 -179
l-23 -57 0 -665 0 -665 24 -60 c33 -82 124 -173 206 -206 l60 -24 665 0 665 0
60 24 c82 33 173 124 206 206 l24 60 0 665 0 665 -24 60 c-17 42 -42 78 -85
121 -43 43 -79 68 -121 85 l-60 24 -650 2 c-605 2 -654 1 -707 -16z"/>
<path d="M1548 3181 c-31 -10 -72 -28 -92 -40 -55 -34 -123 -116 -148 -179
l-23 -57 0 -665 0 -665 24 -60 c33 -82 124 -173 206 -206 l60 -24 665 0 665 0
60 24 c82 33 173 124 206 206 l24 60 0 665 0 665 -24 60 c-33 82 -124 173
-206 206 l-60 24 -650 2 c-605 2 -654 1 -707 -16z"/>
<path d="M4268 3181 c-31 -10 -72 -28 -92 -40 -55 -34 -123 -116 -148 -179
l-23 -57 0 -665 0 -665 24 -60 c33 -82 124 -173 206 -206 l60 -24 665 0 665 0
60 24 c82 33 173 124 206 206 l24 60 0 665 0 665 -24 60 c-33 82 -124 173
-206 206 l-60 24 -650 2 c-605 2 -654 1 -707 -16z"/>
</g>
</svg>
