<?xml version="1.0" standalone="no"?>
<!DOCTYPE svg PUBLIC "-//W3C//DTD SVG 20010904//EN"
 "http://www.w3.org/TR/2001/REC-SVG-20010904/DTD/svg10.dtd">
<svg version="1.0" xmlns="http://www.w3.org/2000/svg"
 width="225.000000pt" height="225.000000pt" viewBox="0 0 225.000000 225.000000"
 preserveAspectRatio="xMidYMid meet">
<metadata>
Created by potrace 1.14, written by Peter Selinger 2001-2017
</metadata>
<g transform="translate(0.000000,225.000000) scale(0.100000,-0.100000)"
fill="#000000" stroke="none">
<path d="M1130 1345 l0 -225 415 0 415 0 0 225 0 225 -415 0 -415 0 0 -225z"/>
<path d="M290 900 l0 -230 195 0 195 0 0 -195 0 -195 225 0 225 0 0 200 0 200
-225 0 -225 0 0 225 0 225 -195 0 -195 0 0 -230z"/>
<path d="M1580 485 l0 -195 190 0 190 0 0 195 0 195 -190 0 -190 0 0 -195z"/>
</g>
</svg>
